<?xml version="1.0" encoding="UTF-8"?>
<svg id="Capa_2" data-name="Capa 2" xmlns="http://www.w3.org/2000/svg" viewBox="0 0 373.52 132.29">
  <defs>
    <style>
      .cls-1 {
        fill: #cce9f3;
      }
    </style>
  </defs>
  <g id="Capa_1-2" data-name="Capa 1">
    <g>
      <path class="cls-1" d="m26.09,12.75c-5.83,0-9.15,2.81-11.81,6.05v-5.19H.59v50.49h13.68v-16.28c2.59,2.95,5.98,5.62,11.88,5.62,9.22,0,17.21-7.71,17.21-20.38v-.14c0-12.46-8.07-20.17-17.29-20.17Zm3.89,20.38c0,5.26-3.67,8.86-7.99,8.86s-7.99-3.67-7.99-8.86v-.14c0-5.19,3.53-8.86,7.99-8.86s7.99,3.67,7.99,8.86v.14Z"/>
      <path class="cls-1" d="m90.33,34.07c0-11.45-6.19-21.32-19.59-21.32-11.52,0-19.66,9.07-19.66,20.38v.14c0,12.03,8.64,20.24,20.89,20.24,7.78,0,13.11-3.1,16.85-7.92l-7.56-6.27c-2.81,2.81-5.26,3.96-8.64,3.96-4.32,0-7.35-2.09-8.43-6.41h26.07c.07-.94.07-1.94.07-2.81Zm-26.36-4.18c.79-4.32,3.1-7.06,6.77-7.06s6.34,2.74,6.84,7.06h-13.61Z"/>
      <path class="cls-1" d="m98.04,14.55h13.68v7.85c2.23-5.26,5.76-8.79,12.32-8.5v14.4h-1.15c-7.2,0-11.16,4.03-11.16,13.04v12.17h-13.68V14.55Z"/>
      <path class="cls-1" d="m171,34.07c0-11.45-6.19-21.32-19.59-21.32-11.52,0-19.66,9.07-19.66,20.38v.14c0,12.03,8.64,20.24,20.89,20.24,7.78,0,13.11-3.1,16.85-7.92l-7.56-6.27c-2.81,2.81-5.26,3.96-8.64,3.96-4.32,0-7.35-2.09-8.43-6.41h26.07c.07-.94.07-1.94.07-2.81Zm-26.36-4.18c.79-4.32,3.1-7.06,6.77-7.06s6.34,2.74,6.84,7.06h-13.61Z"/>
      <path class="cls-1" d="m207.8,13.61v4.61c-2.88-3.1-6.27-5.47-12.24-5.47-8.93,0-16.85,6.91-16.85,18.15v.14c0,11.16,7.78,18.08,17.36,18.08,5.69,0,9.15-2.67,11.96-5.83v1.51c0,6.27-3.31,9.58-10.15,9.58-5.26,0-9.36-1.37-13.61-3.67l-4.39,9.08c5.69,2.88,11.96,4.46,19.45,4.46,8.14,0,13.61-1.8,17.14-5.47,3.39-3.31,5.04-8.5,5.04-15.56V13.61h-13.68Zm.29,17.43c0,4.32-3.31,7.56-7.99,7.56s-7.99-3.17-7.99-7.49v-.14c0-4.39,3.31-7.63,7.99-7.63s7.99,3.24,7.99,7.56v.14Z"/>
      <path class="cls-1" d="m229.19,14.55h13.68v7.85c2.23-5.26,5.76-8.79,12.32-8.5v14.4h-1.15c-7.2,0-11.16,4.03-11.16,13.04v12.17h-13.68V14.55Z"/>
      <rect class="cls-1" x="262.61" width="14.19" height="10.08"/>
      <rect class="cls-1" x="262.9" y="14.55" width="13.61" height="38.96"/>
      <path class="cls-1" d="m284.22,14.55h13.68v5.47c2.52-3.24,6.12-6.34,11.67-6.34,8.35,0,13.25,5.4,13.25,14.33v25.5h-13.61v-21.1c0-4.32-2.16-6.63-5.55-6.63s-5.76,2.3-5.76,6.63v21.1h-13.68V14.55Z"/>
      <path class="cls-1" d="m352.06,12.75c-12.46,0-21.53,9.22-21.53,20.38v.14c0,11.16,9,20.24,21.39,20.24s21.61-9.22,21.61-20.38v-.14c0-11.09-9-20.24-21.46-20.24Zm8.21,20.53c0,4.68-3.24,8.64-8.21,8.64s-8.28-4.03-8.28-8.79v-.14c0-4.83,3.17-8.71,8.14-8.71s8.35,4.03,8.35,8.86v.14Z"/>
      <path class="cls-1" d="m0,126.82l2.09-2.81c4.03,3.1,8.5,4.83,13.18,4.83,4.97,0,8.86-2.67,8.86-6.99v-.14c0-4.32-4.61-5.83-9.72-7.35-6.05-1.73-12.6-3.46-12.6-10.08v-.14c0-5.91,4.97-10.15,12.1-10.15,4.39,0,9.36,1.51,13.04,4.03l-1.87,2.95c-3.38-2.23-7.35-3.67-11.31-3.67-5.11,0-8.35,2.74-8.35,6.41v.14c0,4.11,4.97,5.55,10.23,7.13,5.91,1.73,12.1,3.82,12.1,10.3v.14c0,6.55-5.54,10.73-12.68,10.73-5.4,0-11.09-2.16-15.05-5.33Z"/>
      <path class="cls-1" d="m40.19,121.99v-24.05h-5.33v-3.24h5.33v-11.74h3.53v11.74h12.89v3.24h-12.89v23.7c0,5.26,3.02,7.13,7.35,7.13,1.8,0,3.31-.36,5.4-1.3v3.31c-1.94.86-3.67,1.3-5.98,1.3-5.76,0-10.3-3.1-10.3-10.08Z"/>
      <path class="cls-1" d="m66.33,117.17v-22.47h3.53v21.82c0,7.56,4.18,12.53,11.67,12.53s12.75-5.4,12.75-13.11v-21.25h3.53v36.73h-3.53v-6.84c-2.52,4.32-6.55,7.71-13.25,7.71-9.29,0-14.69-6.27-14.69-15.12Z"/>
      <path class="cls-1" d="m141.81,78.85v23.77c-3.1-4.61-7.78-8.79-15.12-8.79-8.86,0-17.86,7.35-17.86,19.23v.14c0,11.96,9,19.09,17.86,19.09,7.35,0,11.88-4.25,15.12-9.08v8.21h3.53v-52.58h-3.53Zm.22,34.28c0,9.36-7.27,15.77-14.98,15.77s-14.4-6.19-14.4-15.84v-.14c0-9.79,6.34-15.7,14.4-15.7s14.98,6.34,14.98,15.77v.14Z"/>
      <rect class="cls-1" x="158.81" y="80.29" width="4.39" height="4.83"/>
      <rect class="cls-1" x="159.24" y="94.7" width="3.53" height="36.73"/>
      <path class="cls-1" d="m193.1,93.83c-10.95,0-18.94,8.93-18.94,19.23v.14c0,10.3,7.92,19.09,18.8,19.09s18.94-8.93,18.94-19.23v-.14c0-10.3-7.92-19.09-18.8-19.09Zm14.98,19.37c0,8.64-6.27,15.77-14.98,15.77s-15.12-6.99-15.12-15.92v-.14c0-8.64,6.27-15.77,14.98-15.77s15.12,6.99,15.12,15.92v.14Z"/>
    </g>
  </g>
</svg>