<?xml version="1.0" encoding="UTF-8"?>
<svg id="Capa_2" data-name="Capa 2" xmlns="http://www.w3.org/2000/svg" viewBox="0 0 372.93 64.24">
  <defs>
    <style>
      .cls-1 {
        fill: #cce9f3;
      }
    </style>
  </defs>
  <g id="Capa_1-2" data-name="Capa 1">
    <g>
      <path class="cls-1" d="m25.5,12.75c-5.83,0-9.15,2.81-11.81,6.05v-5.19H0v50.49h13.68v-16.28c2.59,2.95,5.98,5.62,11.88,5.62,9.22,0,17.21-7.71,17.21-20.38v-.14c0-12.46-8.07-20.17-17.29-20.17Zm3.89,20.38c0,5.26-3.67,8.86-7.99,8.86s-7.99-3.67-7.99-8.86v-.14c0-5.19,3.53-8.86,7.99-8.86s7.99,3.67,7.99,8.86v.14Z"/>
      <path class="cls-1" d="m89.74,34.07c0-11.45-6.19-21.32-19.59-21.32-11.52,0-19.66,9.07-19.66,20.38v.14c0,12.03,8.64,20.24,20.89,20.24,7.78,0,13.11-3.1,16.85-7.92l-7.56-6.27c-2.81,2.81-5.26,3.96-8.64,3.96-4.32,0-7.35-2.09-8.43-6.41h26.07c.07-.94.07-1.94.07-2.81Zm-26.36-4.18c.79-4.32,3.1-7.06,6.77-7.06s6.34,2.74,6.84,7.06h-13.61Z"/>
      <path class="cls-1" d="m97.45,14.55h13.68v7.85c2.23-5.26,5.76-8.79,12.32-8.5v14.4h-1.15c-7.2,0-11.16,4.03-11.16,13.04v12.17h-13.68V14.55Z"/>
      <path class="cls-1" d="m170.41,34.07c0-11.45-6.19-21.32-19.59-21.32-11.52,0-19.66,9.07-19.66,20.38v.14c0,12.03,8.64,20.24,20.89,20.24,7.78,0,13.11-3.1,16.85-7.92l-7.56-6.27c-2.81,2.81-5.26,3.96-8.64,3.96-4.32,0-7.35-2.09-8.43-6.41h26.07c.07-.94.07-1.94.07-2.81Zm-26.36-4.18c.79-4.32,3.1-7.06,6.77-7.06s6.34,2.74,6.84,7.06h-13.61Z"/>
      <path class="cls-1" d="m207.21,13.61v4.61c-2.88-3.1-6.27-5.47-12.24-5.47-8.93,0-16.85,6.91-16.85,18.15v.14c0,11.16,7.78,18.08,17.36,18.08,5.69,0,9.15-2.67,11.96-5.83v1.51c0,6.27-3.31,9.58-10.15,9.58-5.26,0-9.36-1.37-13.61-3.67l-4.39,9.08c5.69,2.88,11.96,4.46,19.45,4.46,8.14,0,13.61-1.8,17.14-5.47,3.39-3.31,5.04-8.5,5.04-15.56V13.61h-13.68Zm.29,17.43c0,4.32-3.31,7.56-7.99,7.56s-7.99-3.17-7.99-7.49v-.14c0-4.39,3.31-7.63,7.99-7.63s7.99,3.24,7.99,7.56v.14Z"/>
      <path class="cls-1" d="m228.6,14.55h13.68v7.85c2.23-5.26,5.76-8.79,12.32-8.5v14.4h-1.15c-7.2,0-11.16,4.03-11.16,13.04v12.17h-13.68V14.55Z"/>
      <rect class="cls-1" x="262.02" width="14.19" height="10.08"/>
      <rect class="cls-1" x="262.31" y="14.55" width="13.61" height="38.96"/>
      <path class="cls-1" d="m283.63,14.55h13.68v5.47c2.52-3.24,6.12-6.34,11.67-6.34,8.35,0,13.25,5.4,13.25,14.33v25.5h-13.61v-21.1c0-4.32-2.16-6.63-5.55-6.63s-5.76,2.3-5.76,6.63v21.1h-13.68V14.55Z"/>
      <path class="cls-1" d="m351.47,12.75c-12.46,0-21.53,9.22-21.53,20.38v.14c0,11.16,9,20.24,21.39,20.24s21.61-9.22,21.61-20.38v-.14c0-11.09-9-20.24-21.46-20.24Zm8.21,20.53c0,4.68-3.24,8.64-8.21,8.64s-8.28-4.03-8.28-8.79v-.14c0-4.83,3.17-8.71,8.14-8.71s8.35,4.03,8.35,8.86v.14Z"/>
    </g>
  </g>
</svg>