<svg xmlns="http://www.w3.org/2000/svg" xmlns:xlink="http://www.w3.org/1999/xlink" width="1640" zoomAndPan="magnify" viewBox="0 0 1230 693.000001" height="924" preserveAspectRatio="xMidYMid meet" version="1.0"><defs><g/><clipPath id="a26e597cae"><path d="M 0.886719 0 L 1229.113281 0 L 1229.113281 692 L 0.886719 692 Z M 0.886719 0 " clip-rule="nonzero"/></clipPath></defs><g clip-path="url(#a26e597cae)"><path fill="#ffffff" d="M 0.886719 0 L 1229.113281 0 L 1229.113281 692 L 0.886719 692 Z M 0.886719 0 " fill-opacity="1" fill-rule="nonzero"/><path fill="#cbedf6" d="M 0.886719 0 L 1229.113281 0 L 1229.113281 692 L 0.886719 692 Z M 0.886719 0 " fill-opacity="1" fill-rule="nonzero"/></g><g fill="#092a34" fill-opacity="1"><g transform="translate(255.455677, 404.04516)"><g><path d="M 33.515625 1.953125 C 25.171875 1.953125 18.175781 -0.40625 12.53125 -5.125 C 6.882812 -9.84375 4.0625 -16.539062 4.0625 -25.21875 L 4.0625 -25.546875 C 4.0625 -34.660156 7.234375 -41.550781 13.578125 -46.21875 C 19.929688 -50.882812 28.257812 -53.21875 38.5625 -53.21875 C 42.582031 -53.21875 46.488281 -52.890625 50.28125 -52.234375 C 54.082031 -51.585938 57.226562 -50.773438 59.71875 -49.796875 L 59.71875 -51.265625 C 59.71875 -55.929688 58.253906 -59.507812 55.328125 -62 C 52.398438 -64.5 48.003906 -65.75 42.140625 -65.75 C 37.484375 -65.75 33.253906 -65.285156 29.453125 -64.359375 C 25.660156 -63.441406 21.753906 -62.273438 17.734375 -60.859375 L 11.390625 -82.5 C 16.378906 -84.5625 21.691406 -86.21875 27.328125 -87.46875 C 32.972656 -88.71875 39.539062 -89.34375 47.03125 -89.34375 C 54.84375 -89.34375 61.515625 -88.421875 67.046875 -86.578125 C 72.578125 -84.734375 77.078125 -82.070312 80.546875 -78.59375 C 83.910156 -75.34375 86.320312 -71.410156 87.78125 -66.796875 C 89.25 -62.191406 89.984375 -56.796875 89.984375 -50.609375 L 89.984375 0 L 59.5625 0 L 59.5625 -9.28125 C 56.519531 -5.914062 52.851562 -3.203125 48.5625 -1.140625 C 44.28125 0.921875 39.265625 1.953125 33.515625 1.953125 Z M 44.59375 -17.40625 C 49.144531 -17.40625 52.859375 -18.734375 55.734375 -21.390625 C 58.609375 -24.054688 60.046875 -27.554688 60.046875 -31.890625 L 60.046875 -35.96875 C 58.421875 -36.613281 56.550781 -37.15625 54.4375 -37.59375 C 52.320312 -38.03125 50.125 -38.25 47.84375 -38.25 C 43.394531 -38.25 39.921875 -37.269531 37.421875 -35.3125 C 34.929688 -33.363281 33.6875 -30.707031 33.6875 -27.34375 L 33.6875 -27.015625 C 33.6875 -23.972656 34.71875 -21.609375 36.78125 -19.921875 C 38.84375 -18.242188 41.445312 -17.40625 44.59375 -17.40625 Z M 44.59375 -17.40625 "/></g></g></g><g fill="#092a34" fill-opacity="1"><g transform="translate(361.065443, 404.04516)"><g><path d="M 50.9375 2.109375 C 44.320312 2.109375 38.191406 0.890625 32.546875 -1.546875 C 26.898438 -3.984375 22.015625 -7.265625 17.890625 -11.390625 C 13.773438 -15.515625 10.578125 -20.367188 8.296875 -25.953125 C 6.015625 -31.546875 4.875 -37.429688 4.875 -43.609375 L 4.875 -43.9375 C 4.875 -50.125 6.015625 -56.007812 8.296875 -61.59375 C 10.578125 -67.175781 13.773438 -72.054688 17.890625 -76.234375 C 22.015625 -80.410156 26.976562 -83.71875 32.78125 -86.15625 C 38.59375 -88.601562 44.96875 -89.828125 51.90625 -89.828125 C 60.914062 -89.828125 68.507812 -88.035156 74.6875 -84.453125 C 80.875 -80.878906 85.8125 -76.160156 89.5 -70.296875 L 68.671875 -54.671875 C 66.503906 -57.492188 64.144531 -59.742188 61.59375 -61.421875 C 59.039062 -63.109375 55.921875 -63.953125 52.234375 -63.953125 C 47.242188 -63.953125 43.09375 -62 39.78125 -58.09375 C 36.476562 -54.1875 34.828125 -49.578125 34.828125 -44.265625 L 34.828125 -43.9375 C 34.828125 -38.289062 36.453125 -33.539062 39.703125 -29.6875 C 42.960938 -25.84375 47.195312 -23.921875 52.40625 -23.921875 C 56.09375 -23.921875 59.238281 -24.734375 61.84375 -26.359375 C 64.445312 -27.984375 66.941406 -30.207031 69.328125 -33.03125 L 89.984375 -18.0625 C 85.972656 -12.09375 80.847656 -7.238281 74.609375 -3.5 C 68.367188 0.238281 60.476562 2.109375 50.9375 2.109375 Z M 50.9375 2.109375 "/></g></g></g><g fill="#092a34" fill-opacity="1"><g transform="translate(461.793429, 404.04516)"><g><path d="M 52.078125 2.109375 C 45.242188 2.109375 38.894531 1 33.03125 -1.21875 C 27.175781 -3.445312 22.1875 -6.566406 18.0625 -10.578125 C 13.9375 -14.585938 10.707031 -19.410156 8.375 -25.046875 C 6.039062 -30.691406 4.875 -36.878906 4.875 -43.609375 L 4.875 -43.9375 C 4.875 -50.34375 5.957031 -56.363281 8.125 -62 C 10.300781 -67.644531 13.367188 -72.523438 17.328125 -76.640625 C 21.285156 -80.765625 25.976562 -84.019531 31.40625 -86.40625 C 36.832031 -88.789062 42.800781 -89.984375 49.3125 -89.984375 C 56.789062 -89.984375 63.320312 -88.679688 68.90625 -86.078125 C 74.5 -83.484375 79.113281 -79.988281 82.75 -75.59375 C 86.382812 -71.195312 89.097656 -66.066406 90.890625 -60.203125 C 92.679688 -54.347656 93.578125 -48.222656 93.578125 -41.828125 C 93.578125 -40.847656 93.578125 -39.816406 93.578125 -38.734375 C 93.578125 -37.648438 93.519531 -36.5625 93.40625 -35.46875 L 34.5 -35.46875 C 35.695312 -30.695312 37.972656 -27.09375 41.328125 -24.65625 C 44.691406 -22.21875 48.765625 -21 53.546875 -21 C 57.234375 -21 60.617188 -21.726562 63.703125 -23.1875 C 66.796875 -24.65625 69.914062 -26.90625 73.0625 -29.9375 L 90.15625 -15.78125 C 85.925781 -10.46875 80.691406 -6.15625 74.453125 -2.84375 C 68.210938 0.457031 60.753906 2.109375 52.078125 2.109375 Z M 34.015625 -51.265625 L 64.765625 -51.265625 C 64.222656 -56.140625 62.566406 -60.015625 59.796875 -62.890625 C 57.035156 -65.765625 53.539062 -67.203125 49.3125 -67.203125 C 45.289062 -67.203125 41.925781 -65.765625 39.21875 -62.890625 C 36.507812 -60.015625 34.773438 -56.140625 34.015625 -51.265625 Z M 34.015625 -51.265625 "/></g></g></g><g fill="#092a34" fill-opacity="1"><g transform="translate(568.542286, 404.04516)"><g><path d="M 8.296875 0 L 8.296875 -88.046875 L 39.21875 -88.046875 L 39.21875 -75.671875 C 42.039062 -79.359375 45.59375 -82.664062 49.875 -85.59375 C 54.164062 -88.519531 59.398438 -89.984375 65.578125 -89.984375 C 74.910156 -89.984375 82.234375 -87.082031 87.546875 -81.28125 C 92.867188 -75.476562 95.53125 -67.585938 95.53125 -57.609375 L 95.53125 0 L 64.765625 0 L 64.765625 -47.6875 C 64.765625 -52.5625 63.597656 -56.273438 61.265625 -58.828125 C 58.929688 -61.378906 55.921875 -62.65625 52.234375 -62.65625 C 48.546875 -62.65625 45.453125 -61.378906 42.953125 -58.828125 C 40.460938 -56.273438 39.21875 -52.5625 39.21875 -47.6875 L 39.21875 0 Z M 8.296875 0 "/></g></g></g><g fill="#092a34" fill-opacity="1"><g transform="translate(679.847489, 404.04516)"><g><path d="M 43.28125 1.796875 C 34.0625 1.796875 26.847656 -0.453125 21.640625 -4.953125 C 16.429688 -9.460938 13.828125 -16.925781 13.828125 -27.34375 L 13.828125 -63.296875 L 3.421875 -63.296875 L 3.421875 -88.046875 L 13.828125 -88.046875 L 13.828125 -110.328125 L 44.59375 -110.328125 L 44.59375 -88.046875 L 65.09375 -88.046875 L 65.09375 -63.296875 L 44.59375 -63.296875 L 44.59375 -33.359375 C 44.59375 -30.316406 45.296875 -28.09375 46.703125 -26.6875 C 48.109375 -25.28125 50.222656 -24.578125 53.046875 -24.578125 C 55.109375 -24.578125 57.113281 -24.847656 59.0625 -25.390625 C 61.019531 -25.929688 62.921875 -26.632812 64.765625 -27.5 L 64.765625 -3.421875 C 62.054688 -1.898438 58.882812 -0.648438 55.25 0.328125 C 51.613281 1.304688 47.625 1.796875 43.28125 1.796875 Z M 43.28125 1.796875 "/></g></g></g><g fill="#092a34" fill-opacity="1"><g transform="translate(758.119244, 404.04516)"><g><path d="M 53.21875 2.109375 C 46.269531 2.109375 39.8125 0.890625 33.84375 -1.546875 C 27.875 -3.984375 22.773438 -7.265625 18.546875 -11.390625 C 14.316406 -15.515625 10.976562 -20.367188 8.53125 -25.953125 C 6.09375 -31.546875 4.875 -37.429688 4.875 -43.609375 L 4.875 -43.9375 C 4.875 -50.125 6.09375 -56.035156 8.53125 -61.671875 C 10.976562 -67.316406 14.34375 -72.226562 18.625 -76.40625 C 22.914062 -80.582031 28.046875 -83.890625 34.015625 -86.328125 C 39.984375 -88.765625 46.492188 -89.984375 53.546875 -89.984375 C 60.597656 -89.984375 67.078125 -88.765625 72.984375 -86.328125 C 78.898438 -83.890625 84 -80.609375 88.28125 -76.484375 C 92.570312 -72.359375 95.9375 -67.503906 98.375 -61.921875 C 100.8125 -56.335938 102.03125 -50.453125 102.03125 -44.265625 L 102.03125 -43.9375 C 102.03125 -37.75 100.8125 -31.832031 98.375 -26.1875 C 95.9375 -20.550781 92.570312 -15.644531 88.28125 -11.46875 C 84 -7.289062 78.847656 -3.984375 72.828125 -1.546875 C 66.804688 0.890625 60.269531 2.109375 53.21875 2.109375 Z M 53.546875 -24.078125 C 59.078125 -24.078125 63.550781 -26.003906 66.96875 -29.859375 C 70.382812 -33.710938 72.09375 -38.296875 72.09375 -43.609375 L 72.09375 -43.9375 C 72.09375 -49.363281 70.300781 -54.054688 66.71875 -58.015625 C 63.132812 -61.972656 58.632812 -63.953125 53.21875 -63.953125 C 47.6875 -63.953125 43.238281 -62 39.875 -58.09375 C 36.507812 -54.1875 34.828125 -49.578125 34.828125 -44.265625 L 34.828125 -43.9375 C 34.828125 -38.625 36.585938 -33.984375 40.109375 -30.015625 C 43.640625 -26.054688 48.117188 -24.078125 53.546875 -24.078125 Z M 53.546875 -24.078125 "/></g></g></g><g fill="#2fb7db" fill-opacity="1"><g transform="translate(873.009834, 404.04516)"><g><path d="M 6.34375 -55 L 3.90625 -66.890625 C 9.332031 -67.535156 13.425781 -69.160156 16.1875 -71.765625 C 18.957031 -74.367188 20.285156 -77.84375 20.171875 -82.1875 L 7.65625 -82.1875 L 7.65625 -113.90625 L 39.703125 -113.90625 L 39.703125 -88.046875 C 39.703125 -76.109375 36.664062 -67.695312 30.59375 -62.8125 C 24.519531 -57.9375 16.4375 -55.332031 6.34375 -55 Z M 6.34375 -55 "/></g></g></g></svg>