<?xml version="1.0" encoding="UTF-8" standalone="no"?>
<!-- Created with Inkscape (http://www.inkscape.org/) -->

<svg
   width="94.871643mm"
   height="26.364481mm"
   viewBox="0 0 358.57 99.645284"
   version="1.1"
   id="svg1"
   xml:space="preserve"
   xmlns="http://www.w3.org/2000/svg"
   xmlns:svg="http://www.w3.org/2000/svg"><defs
     id="defs1"><style
       id="style1">.cls-1{fill:#36a9e1;}</style><style
       id="style1-3">.cls-1{fill:#fff;}</style><style
       id="style1-5">.cls-1{fill:#36a9e1;}</style><style
       id="style1-2">.cls-1{fill:#fff;}</style><style
       id="style1-8">.cls-1,.cls-2{fill:#fff;}.cls-2{font-size:43.29px;font-family:Nexa-Light;font-weight:300;}</style><style
       id="style1-34">.cls-1{fill:#36a9e1;}</style></defs><g
     id="layer1"
     transform="translate(367.87299,-351.09003)"><g
       id="g1"><path
         class="cls-1"
         d="m -367.87299,351.09003 v 99 h 99 v -99 z m 70.59,68.21 -21.44,-20 -20,20 h -17.49 l 37.42,-37.43 38.25,37.43 z"
         id="path1-3"
         style="fill:#ffffff;fill-opacity:1" /><polygon
         class="cls-1"
         points="115.77,0.07 123.85,0.07 123.85,21.86 144.41,0.07 154.44,0.07 154.44,0.36 131.28,24.45 156.46,50.06 156.46,50.57 146.36,50.57 123.85,27.56 123.85,50.57 115.77,50.57 "
         id="polygon1-83"
         style="fill:#ffffff;fill-opacity:1"
         transform="translate(-367.87299,351.09003)" /><polygon
         class="cls-1"
         points="170.53,0.07 184.46,22.36 198.81,0.07 208.55,0.07 208.55,0.43 188.5,29.86 188.5,50.57 180.41,50.57 180.41,29.86 160.94,0.43 160.94,0.07 "
         id="polygon2-4"
         style="fill:#ffffff;fill-opacity:1"
         transform="translate(-367.87299,351.09003)" /><path
         class="cls-1"
         d="m -112.53299,380.34003 a 10.86,10.86 0 0 0 -6.34,-4.72 q 7,-2.89 7,-10 0,-7.11 -4.81,-10.85 -4.77,-3.62 -12.41,-3.61 h -23.16 v 50.5 h 23.16 a 31.89,31.89 0 0 0 9.34,-1.23 13.54,13.54 0 0 0 6.71,-4.58 13.33,13.33 0 0 0 2.71,-8.62 13,13 0 0 0 -2.2,-6.89 z m -31.71,-21.89 h 15.15 a 9.67,9.67 0 0 1 6.71,2.2 6.66,6.66 0 0 1 2.45,5.08 5.43,5.43 0 0 1 -2.31,4.69 q -2.31,1.67 -6.78,1.67 h -15.22 z m 22.58,34.08 a 16.41,16.41 0 0 1 -7.43,1.63 h -15.15 v -14.87 h 15.22 a 13.57,13.57 0 0 1 7.29,2.06 6.48,6.48 0 0 1 3.32,5.81 5.57,5.57 0 0 1 -3.25,5.37 z"
         id="path2-1"
         style="fill:#ffffff;fill-opacity:1" /><polygon
         class="cls-1"
         points="275.36,29.07 275.36,42.63 304.58,42.63 304.58,50.57 267.28,50.57 267.28,0.07 304.36,0.07 304.36,7.93 275.36,7.93 275.36,21.57 303.21,21.57 303.21,29.07 "
         id="polygon3-3"
         style="fill:#ffffff;fill-opacity:1"
         transform="translate(-367.87299,351.09003)" /><path
         class="cls-1"
         d="m -10.19299,400.21003 -15.08,-16.8 q 7,-1 10.35,-5.38 a 16.47,16.47 0 0 0 3.36,-10.35 16.15,16.15 0 0 0 -4.73,-11.65 q -4.72,-4.88 -13.09,-4.87 l -11.76,-0.07 q -7.86,0 -11.73,0 v 50.57 h 8.08 v -17.46 h 10.68 l 15.36,17.46 h 9.4499996 z m -34.63,-23.37 v -18.32 h 15.44 q 4.68,0 7.14,2.78 a 9.55,9.55 0 0 1 2.45,6.53 9,9 0 0 1 -2.45,6.42 q -2.46,2.6 -7.21,2.59 z"
         id="path3-2"
         style="fill:#ffffff;fill-opacity:1" /><path
         d="m -226.84447,441.09653 q 0,1.83898 -0.86664,3.63568 -0.84551,1.7967 -2.38856,3.04383 -1.69102,1.35281 -3.95275,2.11377 -2.2406,0.76096 -5.41125,0.76096 -3.40317,0 -6.12993,-0.63414 -2.70563,-0.63413 -5.51694,-1.88125 v -5.24215 h 0.29593 q 2.38856,1.98694 5.51693,3.06497 3.12838,1.07802 5.87628,1.07802 3.88934,0 6.04538,-1.4585 2.17719,-1.4585 2.17719,-3.88934 0,-2.09263 -1.03575,-3.0861 -1.01461,-0.99347 -3.10724,-1.54305 -1.58533,-0.42276 -3.44545,-0.69755 -1.83897,-0.27479 -3.91047,-0.69754 -4.18526,-0.88778 -6.21448,-3.02269 -2.00808,-2.15605 -2.00808,-5.60149 0,-3.95275 3.33975,-6.46814 3.33976,-2.53652 8.47622,-2.53652 3.31862,0 6.08766,0.63413 2.76903,0.63413 4.90394,1.56419 v 4.94622 h -0.29593 q -1.7967,-1.52191 -4.73484,-2.51538 -2.917,-1.01461 -5.98197,-1.01461 -3.36089,0 -5.41125,1.39508 -2.02922,1.39509 -2.02922,3.59341 0,1.96581 1.01461,3.08611 1.01461,1.12029 3.57227,1.71215 1.35282,0.29593 3.84706,0.71868 2.49425,0.42276 4.22754,0.86665 3.50886,0.93006 5.28443,2.81131 1.77556,1.88126 1.77556,5.26329 z"
         id="text12"
         style="font-weight:300;font-size:43.29px;font-family:Nexa-Light;fill:#ffffff"
         aria-label="S" /><path
         d="m -193.67446,422.32625 h -11.24526 v 27.7538 h -4.18526 v -27.7538 h -11.24525 v -3.72023 h 26.67577 z"
         id="text11"
         style="font-weight:300;font-size:43.29px;font-family:Nexa-Light;fill:#ffffff"
         aria-label="T" /><path
         d="m -163.75156,437.43971 q 0,3.4243 -0.76095,5.98196 -0.73982,2.53653 -2.45198,4.22754 -1.6276,1.60647 -3.80478,2.34629 -2.17719,0.73982 -5.07305,0.73982 -2.95928,0 -5.1576,-0.7821 -2.19832,-0.78209 -3.69909,-2.30401 -1.71216,-1.73329 -2.47311,-4.18526 -0.73982,-2.45197 -0.73982,-6.02424 v -18.83369 h 4.18526 v 19.04506 q 0,2.55766 0.3382,4.0373 0.35934,1.47964 1.18371,2.68449 0.93006,1.37395 2.51539,2.07149 1.60646,0.69755 3.84706,0.69755 2.26173,0 3.84706,-0.67641 1.58533,-0.69754 2.53652,-2.09263 0.82437,-1.20485 1.16258,-2.7479 0.35934,-1.56419 0.35934,-3.8682 v -19.15075 h 4.18526 z"
         id="text10"
         style="font-weight:300;font-size:43.29px;font-family:Nexa-Light;fill:#ffffff"
         aria-label="U" /><path
         d="m -127.1703,434.37474 q 0,4.29095 -1.88125,7.77867 -1.86012,3.48772 -4.96736,5.41125 -2.15605,1.33168 -4.8194,1.92353 -2.64221,0.59186 -6.97544,0.59186 h -7.94777 v -31.47403 h 7.86322 q 4.60802,0 7.31365,0.6764 2.72676,0.65527 4.60801,1.81785 3.21293,2.00808 5.00964,5.34783 1.7967,3.33976 1.7967,7.92664 z m -4.3755,-0.0634 q 0,-3.6991 -1.2894,-6.23562 -1.2894,-2.53653 -3.84706,-3.99503 -1.86012,-1.05688 -3.95275,-1.4585 -2.09263,-0.42275 -5.00964,-0.42275 h -3.93161 v 24.28721 h 3.93161 q 3.0227,0 5.26329,-0.44389 2.26173,-0.44389 4.14299,-1.64874 2.34628,-1.50078 3.50886,-3.95275 1.18371,-2.45197 1.18371,-6.12993 z"
         id="text9"
         style="font-weight:300;font-size:43.29px;font-family:Nexa-Light;fill:#ffffff"
         aria-label="D" /><path
         d="m -107.30894,450.08005 h -12.42897 v -3.21293 h 4.12185 v -25.04817 h -4.12185 v -3.21293 h 12.42897 v 3.21293 h -4.12186 v 25.04817 h 4.12186 z"
         id="text8"
         style="font-weight:300;font-size:43.29px;font-family:Nexa-Light;fill:#ffffff"
         aria-label="I" /><path
         d="m -74.722689,422.22056 q 1.92353,2.11377 2.938139,5.17874 1.035748,3.06497 1.035748,6.9543 0,3.88934 -1.056885,6.97544 -1.035747,3.06497 -2.917002,5.11532 -1.944668,2.13491 -4.608018,3.21293 -2.642212,1.07803 -6.045381,1.07803 -3.318618,0 -6.045381,-1.09916 -2.705625,-1.09916 -4.608018,-3.1918 -1.902392,-2.09263 -2.938139,-5.13646 -1.01461,-3.04382 -1.01461,-6.9543 0,-3.84706 1.01461,-6.89089 1.014609,-3.06496 2.959277,-5.24215 1.860117,-2.07149 4.608018,-3.17065 2.769038,-1.09916 6.024243,-1.09916 3.382031,0 6.066519,1.1203 2.705625,1.09916 4.58688,3.14951 z m -0.380479,12.13304 q 0,-6.12993 -2.7479,-9.44855 -2.747901,-3.33975 -7.503882,-3.33975 -4.798257,0 -7.546158,3.33975 -2.726762,3.31862 -2.726762,9.44855 0,6.19335 2.790176,9.49083 2.790175,3.27634 7.482744,3.27634 4.692568,0 7.461606,-3.27634 2.790176,-3.29748 2.790176,-9.49083 z"
         id="text7"
         style="font-weight:300;font-size:43.29px;font-family:Nexa-Light;fill:#ffffff"
         aria-label="O" /></g></g></svg>
