<svg xmlns="http://www.w3.org/2000/svg" viewBox="0 0 279.16 45.66"><defs><style>.cls-1{fill:#1b2340;}</style></defs><g id="Capa_2" data-name="Capa 2"><g id="Capa_1-2" data-name="Capa 1"><path class="cls-1" d="M7.23,13l9.25,26.62L25.73,13h7.18L20.46,45.66H12.39L0,13Z"/><path class="cls-1" d="M56.5,45.66c-9.36,0-16.3-6.64-16.3-16.9s6.64-16.84,16.3-16.84c9.31,0,15.9,6.46,15.9,16.07a20.69,20.69,0,0,1-.24,3.32h-25A9,9,0,0,0,56.5,40c4.16,0,6.47-2,7.71-4.57h7.3C69.67,41.09,64.51,45.66,56.5,45.66ZM47.25,25.85H65.34c-.12-5-4.09-8.24-9.13-8.24C51.64,17.61,48,20.69,47.25,25.85Z"/><path class="cls-1" d="M97.53,45.66c-9.37,0-16.3-6.64-16.3-16.9s6.64-16.84,16.3-16.84c9.31,0,15.89,6.46,15.89,16.07a21.89,21.89,0,0,1-.23,3.32h-25A9,9,0,0,0,97.53,40c4.15,0,6.46-2,7.71-4.57h7.29C110.69,41.09,105.54,45.66,97.53,45.66ZM88.28,25.85h18.09c-.12-5-4.1-8.24-9.14-8.24C92.67,17.61,89,20.69,88.28,25.85Z"/><path class="cls-1" d="M255.89,45.66h-6.76V13h6.76v4.74c1.9-3.26,5.16-5.28,9.78-5.28v7H264c-5,0-8.06,2.07-8.06,9Z"/><path class="cls-1" d="M164.82,18.5H161V13h3.85V4.86h6.82V13h8V18.5h-8V36.59c0,2.43,1,3.43,3.8,3.43h4.15v5.64h-5.34c-5.81,0-9.43-2.43-9.43-9.07Z"/><path class="cls-1" d="M189.37,4.33a4.3,4.3,0,1,1,8.59,0,4.3,4.3,0,1,1-8.59,0Zm.89,8.66H197V45.66h-6.76Z"/><path class="cls-1" d="M224.41,45.66c-9.37,0-16.31-6.64-16.31-16.9s6.64-16.84,16.31-16.84c9.31,0,15.89,6.46,15.89,16.07a20.69,20.69,0,0,1-.24,3.32h-25A9,9,0,0,0,224.41,40c4.15,0,6.46-2,7.71-4.57h7.29C237.57,41.09,232.41,45.66,224.41,45.66Zm-9.25-19.81h18.08c-.12-5-4.09-8.24-9.13-8.24C219.55,17.61,215.87,20.69,215.16,25.85Z"/><path class="cls-1" d="M145.44,27.39c0-6-3.26-9.07-8.19-9.07S129,21.41,129,27.39V45.66h-6.76V13H129v3.73a12.57,12.57,0,0,1,9.73-4.27c7.65,0,13.4,4.8,13.4,13.94V45.66h-6.7Z"/><rect class="cls-1" x="270.79" y="37.29" width="6.39" height="10.35" rx="3.2" transform="translate(316.45 -231.53) rotate(90)"/></g></g></svg>