<?xml version="1.0" encoding="UTF-8" standalone="no"?>
<!-- Created with Inkscape (http://www.inkscape.org/) -->

<svg
   width="94.871635mm"
   height="26.364483mm"
   viewBox="0 0 358.56997 99.645291"
   version="1.1"
   id="svg1"
   xml:space="preserve"
   xmlns:inkscape="http://www.inkscape.org/namespaces/inkscape"
   xmlns:sodipodi="http://sodipodi.sourceforge.net/DTD/sodipodi-0.dtd"
   xmlns="http://www.w3.org/2000/svg"
   xmlns:svg="http://www.w3.org/2000/svg"><sodipodi:namedview
     id="namedview1"
     pagecolor="#ffffff"
     bordercolor="#000000"
     borderopacity="0.25"
     inkscape:showpageshadow="2"
     inkscape:pageopacity="0.0"
     inkscape:pagecheckerboard="0"
     inkscape:deskcolor="#d1d1d1"
     inkscape:document-units="mm"
     showguides="true" /><defs
     id="defs1"><style
       id="style1">.cls-1{fill:#36a9e1;}</style><style
       id="style1-3">.cls-1{fill:#fff;}</style><style
       id="style1-5">.cls-1{fill:#36a9e1;}</style><style
       id="style1-2">.cls-1{fill:#fff;}</style><style
       id="style1-8">.cls-1,.cls-2{fill:#fff;}.cls-2{font-size:43.29px;font-family:Nexa-Light;font-weight:300;}</style><style
       id="style1-34">.cls-1{fill:#36a9e1;}</style></defs><g
     inkscape:label="Capa 1"
     inkscape:groupmode="layer"
     id="layer1"
     transform="translate(374.31843,-466.09026)"><g
       id="g24"><path
         class="cls-1"
         d="m -374.31843,466.09024 v 99 h 99 v -99 z m 70.59,68.21 -21.44,-20 -20,20 h -17.49 l 37.42,-37.43 38.25,37.43 z"
         id="path1-3"
         style="fill:#ffffff;fill-opacity:1" /><polygon
         class="cls-1"
         points="131.28,24.45 156.46,50.06 156.46,50.57 146.36,50.57 123.85,27.56 123.85,50.57 115.77,50.57 115.77,0.07 123.85,0.07 123.85,21.86 144.41,0.07 154.44,0.07 154.44,0.36 "
         id="polygon1-83"
         style="fill:#ffffff;fill-opacity:1"
         transform="translate(-374.31843,466.09024)" /><polygon
         class="cls-1"
         points="208.55,0.43 188.5,29.86 188.5,50.57 180.41,50.57 180.41,29.86 160.94,0.43 160.94,0.07 170.53,0.07 184.46,22.36 198.81,0.07 208.55,0.07 "
         id="polygon2-4"
         style="fill:#ffffff;fill-opacity:1"
         transform="translate(-374.31843,466.09024)" /><path
         class="cls-1"
         d="m -118.97843,495.34024 a 10.86,10.86 0 0 0 -6.34,-4.72 q 7,-2.89 7,-10 0,-7.11 -4.81,-10.85 -4.77,-3.62 -12.41,-3.61 h -23.16 v 50.5 h 23.16 a 31.89,31.89 0 0 0 9.34,-1.23 13.54,13.54 0 0 0 6.71,-4.58 13.33,13.33 0 0 0 2.71,-8.62 13,13 0 0 0 -2.2,-6.89 z m -31.71,-21.89 h 15.15 a 9.67,9.67 0 0 1 6.71,2.2 6.66,6.66 0 0 1 2.45,5.08 5.43,5.43 0 0 1 -2.31,4.69 q -2.31,1.67 -6.78,1.67 h -15.22 z m 22.58,34.08 a 16.41,16.41 0 0 1 -7.43,1.63 h -15.15 v -14.87 h 15.22 a 13.57,13.57 0 0 1 7.29,2.06 6.48,6.48 0 0 1 3.32,5.81 5.57,5.57 0 0 1 -3.25,5.37 z"
         id="path2-1"
         style="fill:#ffffff;fill-opacity:1" /><polygon
         class="cls-1"
         points="267.28,0.07 304.36,0.07 304.36,7.93 275.36,7.93 275.36,21.57 303.21,21.57 303.21,29.07 275.36,29.07 275.36,42.63 304.58,42.63 304.58,50.57 267.28,50.57 "
         id="polygon3-3"
         style="fill:#ffffff;fill-opacity:1"
         transform="translate(-374.31843,466.09024)" /><path
         class="cls-1"
         d="m -16.63843,515.21024 -15.08,-16.8 q 7,-1 10.35,-5.38 a 16.47,16.47 0 0 0 3.36,-10.35 16.15,16.15 0 0 0 -4.73,-11.65 q -4.72,-4.88 -13.09,-4.87 l -11.76,-0.07 q -7.86,0 -11.73,0 v 50.57 h 8.08 v -17.46 h 10.68 l 15.36,17.46 h 9.45 z m -34.63,-23.37 v -18.32 h 15.44 q 4.68,0 7.14,2.78 a 9.55,9.55 0 0 1 2.45,6.53 9,9 0 0 1 -2.45,6.42 q -2.46,2.6 -7.21,2.59 z"
         id="path3-2"
         style="fill:#ffffff;fill-opacity:1" /><text
         style="font-weight:300;font-size:43.29px;font-family:Nexa-Light;fill:#ffffff;fill-opacity:1"
         x="-260.38843"
         y="565.08026"
         id="text12">S</text><text
         style="font-weight:300;font-size:43.29px;font-family:Nexa-Light;fill:#ffffff;fill-opacity:1"
         x="-226.79567"
         y="565.08026"
         id="text11">T</text><text
         style="font-weight:300;font-size:43.29px;font-family:Nexa-Light;fill:#ffffff;fill-opacity:1"
         x="-198.11989"
         y="565.08026"
         id="text10">U</text><text
         style="font-weight:300;font-size:43.29px;font-family:Nexa-Light;fill:#ffffff;fill-opacity:1"
         x="-164.43449"
         y="565.08026"
         id="text9">D</text><text
         style="font-weight:300;font-size:43.29px;font-family:Nexa-Light;fill:#ffffff;fill-opacity:1"
         x="-129.07921"
         y="565.08026"
         id="text8">I</text><text
         style="font-weight:300;font-size:43.29px;font-family:Nexa-Light;fill:#ffffff;fill-opacity:1"
         x="-108.85851"
         y="565.08026"
         id="text7">O</text></g></g></svg>
