<svg xmlns="http://www.w3.org/2000/svg" xmlns:xlink="http://www.w3.org/1999/xlink" width="433" zoomAndPan="magnify" viewBox="0 0 324.75 578.249966" height="771" preserveAspectRatio="xMidYMid meet" version="1.0"><defs><filter x="0%" y="0%" width="100%" height="100%" id="1bfb2d2b42"><feColorMatrix values="0 0 0 0 1 0 0 0 0 1 0 0 0 0 1 0 0 0 1 0" color-interpolation-filters="sRGB"/></filter><clipPath id="3e82c882d3"><path d="M 1 0.136719 L 323 0.136719 L 323 158.929688 L 1 158.929688 Z M 1 0.136719 " clip-rule="nonzero"/></clipPath><clipPath id="b288c89975"><path d="M 0.0859375 288 L 324.414062 288 L 324.414062 448 L 0.0859375 448 Z M 0.0859375 288 " clip-rule="nonzero"/></clipPath><mask id="d803d276c1"><g filter="url(#1bfb2d2b42)"><rect x="-32.475" width="389.7" fill="#000000" y="-57.824997" height="693.899959" fill-opacity="0.25"/></g></mask><clipPath id="b1fe83b5f3"><path d="M 1 0.789062 L 323 0.789062 L 323 159.585938 L 1 159.585938 Z M 1 0.789062 " clip-rule="nonzero"/></clipPath><clipPath id="90faebdc3d"><rect x="0" width="325" y="0" height="160"/></clipPath><clipPath id="0982523889"><path d="M 0.0859375 418 L 324.414062 418 L 324.414062 577.5 L 0.0859375 577.5 Z M 0.0859375 418 " clip-rule="nonzero"/></clipPath><mask id="cbdfbc7a20"><g filter="url(#1bfb2d2b42)"><rect x="-32.475" width="389.7" fill="#000000" y="-57.824997" height="693.899959" fill-opacity="0.05"/></g></mask><clipPath id="2f697695dd"><path d="M 1 0.691406 L 323 0.691406 L 323 159.484375 L 1 159.484375 Z M 1 0.691406 " clip-rule="nonzero"/></clipPath><clipPath id="c17463a493"><rect x="0" width="325" y="0" height="160"/></clipPath><clipPath id="b47677c410"><path d="M 0.0859375 158 L 324.414062 158 L 324.414062 318 L 0.0859375 318 Z M 0.0859375 158 " clip-rule="nonzero"/></clipPath><mask id="5bc975b22f"><g filter="url(#1bfb2d2b42)"><rect x="-32.475" width="389.7" fill="#000000" y="-57.824997" height="693.899959" fill-opacity="0.4"/></g></mask><clipPath id="3bd653d754"><path d="M 1 0.890625 L 323 0.890625 L 323 159.683594 L 1 159.683594 Z M 1 0.890625 " clip-rule="nonzero"/></clipPath><clipPath id="746edc5859"><rect x="0" width="325" y="0" height="160"/></clipPath></defs><g clip-path="url(#3e82c882d3)"><path fill="#ffffff" d="M 1.585938 158.929688 L 75.667969 158.929688 L 160.6875 73.917969 L 251.710938 158.929688 L 322.730469 158.929688 L 160.414062 0.136719 Z M 1.585938 158.929688 " fill-opacity="1" fill-rule="nonzero"/></g><g clip-path="url(#b288c89975)"><g mask="url(#d803d276c1)"><g transform="matrix(1, 0, 0, 1, 0, 288)"><g clip-path="url(#90faebdc3d)"><g clip-path="url(#b1fe83b5f3)"><path fill="#ffffff" d="M 1.585938 159.585938 L 75.667969 159.585938 L 160.6875 74.574219 L 251.710938 159.585938 L 322.730469 159.585938 L 160.414062 0.789062 Z M 1.585938 159.585938 " fill-opacity="1" fill-rule="nonzero"/></g></g></g></g></g><g clip-path="url(#0982523889)"><g mask="url(#cbdfbc7a20)"><g transform="matrix(1, 0, 0, 1, 0, 418)"><g clip-path="url(#c17463a493)"><g clip-path="url(#2f697695dd)"><path fill="#ffffff" d="M 1.585938 159.484375 L 75.667969 159.484375 L 160.6875 74.472656 L 251.710938 159.484375 L 322.730469 159.484375 L 160.414062 0.691406 Z M 1.585938 159.484375 " fill-opacity="1" fill-rule="nonzero"/></g></g></g></g></g><g clip-path="url(#b47677c410)"><g mask="url(#5bc975b22f)"><g transform="matrix(1, 0, 0, 1, 0, 158)"><g clip-path="url(#746edc5859)"><g clip-path="url(#3bd653d754)"><path fill="#ffffff" d="M 1.585938 159.683594 L 75.667969 159.683594 L 160.6875 74.671875 L 251.710938 159.683594 L 322.730469 159.683594 L 160.414062 0.890625 Z M 1.585938 159.683594 " fill-opacity="1" fill-rule="nonzero"/></g></g></g></g></g></svg>