<svg xmlns="http://www.w3.org/2000/svg" xmlns:xlink="http://www.w3.org/1999/xlink" width="433" zoomAndPan="magnify" viewBox="0 0 324.75 578.249966" height="771" preserveAspectRatio="xMidYMid meet" version="1.0"><defs><filter x="0%" y="0%" width="100%" height="100%" id="9184865872"><feColorMatrix values="0 0 0 0 1 0 0 0 0 1 0 0 0 0 1 0 0 0 1 0" color-interpolation-filters="sRGB"/></filter><clipPath id="b27e757517"><path d="M 0.0859375 0 L 324.414062 0 L 324.414062 577.5 L 0.0859375 577.5 Z M 0.0859375 0 " clip-rule="nonzero"/></clipPath><clipPath id="30d87e1f27"><path d="M 1 0.136719 L 323 0.136719 L 323 158.929688 L 1 158.929688 Z M 1 0.136719 " clip-rule="nonzero"/></clipPath><clipPath id="1e991e74ee"><path d="M 0.0859375 288 L 324.414062 288 L 324.414062 448 L 0.0859375 448 Z M 0.0859375 288 " clip-rule="nonzero"/></clipPath><mask id="ffea775b23"><g filter="url(#9184865872)"><rect x="-32.475" width="389.7" fill="#000000" y="-57.824997" height="693.899959" fill-opacity="0.25"/></g></mask><clipPath id="a9fbaaf7c6"><path d="M 1 0.789062 L 323 0.789062 L 323 159.585938 L 1 159.585938 Z M 1 0.789062 " clip-rule="nonzero"/></clipPath><clipPath id="cb919b44b4"><rect x="0" width="325" y="0" height="160"/></clipPath><clipPath id="4557d48b59"><path d="M 0.0859375 418 L 324.414062 418 L 324.414062 577.5 L 0.0859375 577.5 Z M 0.0859375 418 " clip-rule="nonzero"/></clipPath><mask id="45a5837101"><g filter="url(#9184865872)"><rect x="-32.475" width="389.7" fill="#000000" y="-57.824997" height="693.899959" fill-opacity="0.05"/></g></mask><clipPath id="52564c721a"><path d="M 1 0.691406 L 323 0.691406 L 323 159.484375 L 1 159.484375 Z M 1 0.691406 " clip-rule="nonzero"/></clipPath><clipPath id="356028d95e"><rect x="0" width="325" y="0" height="160"/></clipPath><clipPath id="c020460337"><path d="M 0.0859375 158 L 324.414062 158 L 324.414062 318 L 0.0859375 318 Z M 0.0859375 158 " clip-rule="nonzero"/></clipPath><mask id="95132c447d"><g filter="url(#9184865872)"><rect x="-32.475" width="389.7" fill="#000000" y="-57.824997" height="693.899959" fill-opacity="0.4"/></g></mask><clipPath id="344cdf8bdd"><path d="M 1 0.890625 L 323 0.890625 L 323 159.683594 L 1 159.683594 Z M 1 0.890625 " clip-rule="nonzero"/></clipPath><clipPath id="85dbb1f4ce"><rect x="0" width="325" y="0" height="160"/></clipPath></defs><g clip-path="url(#b27e757517)"><path fill="#ffffff" d="M 0.0859375 0 L 324.414062 0 L 324.414062 577.5 L 0.0859375 577.5 Z M 0.0859375 0 " fill-opacity="1" fill-rule="nonzero"/></g><g clip-path="url(#30d87e1f27)"><path fill="#ffffff" d="M 1.585938 158.929688 L 75.667969 158.929688 L 160.6875 73.917969 L 251.710938 158.929688 L 322.730469 158.929688 L 160.414062 0.136719 Z M 1.585938 158.929688 " fill-opacity="1" fill-rule="nonzero"/></g><g clip-path="url(#1e991e74ee)"><g mask="url(#ffea775b23)"><g transform="matrix(1, 0, 0, 1, 0, 288)"><g clip-path="url(#cb919b44b4)"><g clip-path="url(#a9fbaaf7c6)"><path fill="#ffffff" d="M 1.585938 159.585938 L 75.667969 159.585938 L 160.6875 74.574219 L 251.710938 159.585938 L 322.730469 159.585938 L 160.414062 0.789062 Z M 1.585938 159.585938 " fill-opacity="1" fill-rule="nonzero"/></g></g></g></g></g><g clip-path="url(#4557d48b59)"><g mask="url(#45a5837101)"><g transform="matrix(1, 0, 0, 1, 0, 418)"><g clip-path="url(#356028d95e)"><g clip-path="url(#52564c721a)"><path fill="#ffffff" d="M 1.585938 159.484375 L 75.667969 159.484375 L 160.6875 74.472656 L 251.710938 159.484375 L 322.730469 159.484375 L 160.414062 0.691406 Z M 1.585938 159.484375 " fill-opacity="1" fill-rule="nonzero"/></g></g></g></g></g><g clip-path="url(#c020460337)"><g mask="url(#95132c447d)"><g transform="matrix(1, 0, 0, 1, 0, 158)"><g clip-path="url(#85dbb1f4ce)"><g clip-path="url(#344cdf8bdd)"><path fill="#ffffff" d="M 1.585938 159.683594 L 75.667969 159.683594 L 160.6875 74.671875 L 251.710938 159.683594 L 322.730469 159.683594 L 160.414062 0.890625 Z M 1.585938 159.683594 " fill-opacity="1" fill-rule="nonzero"/></g></g></g></g></g></svg>