{"accessors" : [{"bufferView" : 0, "byteOffset" : 0, "componentType" : 5123, "count" : 5904, "type" : "SCALAR", "max" : [4724], "min" : [0]}, {"bufferView" : 1, "byteOffset" : 0, "componentType" : 5126, "count" : 4725, "type" : "VEC3", "max" : [3.4939799308776855, 4.193640232086182, 2.0120999813079834], "min" : [-3.4939799308776855, -4.193640232086182, -2.0120999813079834], "name" : "POSITION"}, {"bufferView" : 1, "byteOffset" : 12, "componentType" : 5126, "count" : 4725, "type" : "VEC2", "max" : [1, 1], "min" : [0, 0.04513901472091675], "name" : "TEXCOORD_0"}, {"bufferView" : 1, "byteOffset" : 20, "componentType" : 5126, "count" : 4725, "type" : "VEC3", "max" : [1.0000044107437134, 1.0000044107437134, 1.0000044107437134], "min" : [-1.0000044107437134, -1.0000044107437134, -1.0000044107437134], "name" : "NORMAL"}], "asset" : {"generator" : "Aspose.3D 24.1.0", "version" : "2.0"}, "buffers" : [{"uri" : "data:application/octet-stream;base64,", "byteLength" : 200744}], "bufferViews" : [{"buffer" : 0, "byteOffset" : 0, "byteLength" : 11808, "target" : 34963}, {"buffer" : 0, "byteOffset" : 11812, "byteLength" : 188928, "byteStride" : 32, "target" : 34962}], "materials" : [{"name" : "material0", "pbrMetallicRoughness" : {"baseColorFactor" : [0.796875, 0.910156, 0.945312, 1], "metallicFactor" : 1, "roughnessFactor" : 1}, "emissiveFactor" : [0, 0, 0], "alphaMode" : "OPAQUE", "doubleSided" : false}], "meshes" : [{"primitives" : [{"attributes" : {"POSITION" : 1, "TEXCOORD_0" : 2, "NORMAL" : 3}, "indices" : 0, "material" : 0, "mode" : 4}], "name" : ""}], "nodes" : [{"mesh" : 0, "name" : "groupNumber_0"}], "scene" : 0, "scenes" : [{"nodes" : [0]}]}