<?xml version="1.0" encoding="UTF-8"?>
<svg id="Capa_2" data-name="Capa 2" xmlns="http://www.w3.org/2000/svg" viewBox="0 0 585.46 96.21">
  <defs>
    <style>
      .cls-1 {
        fill: #1d1d1b;
      }
    </style>
  </defs>
  <g id="Capa_1-2" data-name="Capa 1">
    <g>
      <g>
        <path class="cls-1" d="m41.98,0v28.05c-3.66-4.94-9.29-9.19-17.78-9.19C11.75,18.87,0,28.55,0,45.93v.2C0,63.52,11.95,73.2,24.2,73.2c8.4,0,13.93-4.35,17.78-9.78v8.69h11.95V0h-11.95Zm.2,46.13c0,9.98-7.11,16.69-15.11,16.69s-15.01-6.62-15.01-16.69v-.2c0-10.27,6.82-16.69,15.01-16.69s15.11,6.62,15.11,16.69v.2Z"/>
        <rect class="cls-1" x="69.14" y=".59" width="12.84" height="11.36"/>
        <rect class="cls-1" x="69.53" y="19.95" width="12.05" height="52.16"/>
        <path class="cls-1" d="m144.8,46.92c0-15.01-8.4-28.05-24.99-28.05-14.92,0-25.48,12.15-25.48,27.17v.2c0,16.1,11.75,27.07,26.77,27.07,9.58,0,16.3-3.85,21.34-9.78l-7.01-6.22c-4.25,4.05-8.2,6.22-14.13,6.22-7.8,0-13.73-4.64-15.02-13.24h38.33c.1-1.18.2-2.27.2-3.36Zm-38.62-4.54c1.09-8.2,6.13-13.73,13.53-13.73,7.9,0,12.45,6.13,13.24,13.73h-26.77Z"/>
        <polygon class="cls-1" points="152.99 63.91 183.12 29.73 154.08 29.73 154.08 19.95 198.33 19.95 198.33 28.15 168.2 62.33 198.33 62.33 198.33 72.11 152.99 72.11 152.99 63.91"/>
      </g>
      <g>
        <path class="cls-1" d="m275.23,47.51v-.2c0-14.82,11.46-27.26,27.16-27.26,9.78,0,15.81,3.66,20.84,8.99l-7.51,8c-3.66-3.85-7.51-6.52-13.43-6.52-8.69,0-15.11,7.51-15.11,16.59v.2c0,9.29,6.42,16.69,15.61,16.69,5.63,0,9.68-2.57,13.53-6.42l7.21,7.11c-5.14,5.83-11.16,9.78-21.34,9.78-15.51,0-26.97-12.15-26.97-26.97Z"/>
        <path class="cls-1" d="m333.8,54.33V21.14h11.95v29.63c0,8.2,4.05,12.64,11.16,12.64s11.75-4.64,11.75-12.84v-29.44h12.05v52.16h-12.05v-8.1c-3.46,5.04-8.3,9.19-16.3,9.19-11.85,0-18.57-7.8-18.57-20.05Z"/>
        <path class="cls-1" d="m433.66,26.27c-3.75-3.85-9.48-5.83-17.29-5.83-8.3,0-13.93,1.78-19.76,4.25l3.26,9.39c4.74-1.98,8.99-3.26,14.92-3.26,8.4,0,12.94,3.85,12.94,11.36v1.28c-4.05-1.28-8.1-2.17-14.03-2.17-12.74,0-21.63,5.43-21.63,16.79v.2c0,10.57,8.79,16.1,18.57,16.1,8,0,13.43-3.36,16.99-7.61v6.52h11.65v-30.92c0-6.82-1.78-12.25-5.63-16.1Zm-5.73,28.25c0,6.72-6.03,11.16-13.93,11.16-5.83,0-10.17-2.86-10.17-7.9v-.2c0-5.53,4.45-8.69,12.25-8.69,4.74,0,8.79.89,11.85,2.07v3.56Z"/>
        <path class="cls-1" d="m455.58,58.87v-27.46h-6.62v-10.27h6.62V6.82h11.95v14.32h14.03v10.27h-14.03v25.58c0,4.64,2.37,6.52,6.42,6.52,2.57,0,5.04-.59,7.41-1.78v9.78c-3.06,1.68-6.13,2.67-10.77,2.67-8.79,0-15.01-3.85-15.01-15.31Z"/>
        <path class="cls-1" d="m493.6,21.14h12.05v11.75c3.26-7.9,9.29-13.14,18.47-12.74v12.64h-.69c-10.57,0-17.78,6.81-17.78,20.64v19.85h-12.05V21.14Z"/>
        <path class="cls-1" d="m557.71,20.05c-16,0-27.86,12.35-27.86,27.26v.2c0,14.82,11.75,26.97,27.66,26.97s27.95-12.45,27.95-27.16v-.2c0-14.92-11.66-27.07-27.76-27.07Zm15.81,27.46c0,8.99-6.03,16.5-15.81,16.5-9.19,0-15.9-7.61-15.9-16.69v-.2c0-9.09,6.13-16.59,15.71-16.59s16,7.61,16,16.79v.2Z"/>
      </g>
      <path class="cls-1" d="m230.74,51.97h-20.35v-11.87h20.35v-20.14h12.09v20.14h20.35v11.87h-20.35v20.14h-12.09v-20.14Z"/>
      <rect class="cls-1" x="286.71" y="-202.54" width="12.05" height="585.46" transform="translate(382.92 -202.54) rotate(90)"/>
    </g>
  </g>
</svg>