<?xml version="1.0" encoding="UTF-8"?>
<svg id="Capa_2" data-name="Capa 2" xmlns="http://www.w3.org/2000/svg" viewBox="0 0 397.53 226.95">
  <defs>
    <style>
      .cls-1 {
        fill: #1d1d1b;
      }
    </style>
  </defs>
  <g id="Capa_1-2" data-name="Capa 1">
    <g>
      <g>
        <path class="cls-1" d="m53.79,0v35.95c-4.68-6.33-11.9-11.77-22.78-11.77C15.06,24.18,0,36.58,0,58.86v.25c0,22.28,15.32,34.68,31.01,34.68,10.76,0,17.85-5.57,22.78-12.53v11.14h15.31V0h-15.31Zm.25,59.11c0,12.78-9.11,21.39-19.37,21.39s-19.24-8.48-19.24-21.39v-.25c0-13.16,8.73-21.39,19.24-21.39s19.37,8.48,19.37,21.39v.25Z"/>
        <rect class="cls-1" x="88.59" y=".76" width="16.46" height="14.56"/>
        <rect class="cls-1" x="89.1" y="25.57" width="15.44" height="66.83"/>
        <path class="cls-1" d="m185.54,60.12c0-19.24-10.76-35.95-32.02-35.95-19.11,0-32.66,15.57-32.66,34.81v.25c0,20.63,15.06,34.68,34.3,34.68,12.28,0,20.88-4.94,27.34-12.53l-8.99-7.97c-5.44,5.19-10.51,7.97-18.1,7.97-10,0-17.59-5.95-19.24-16.96h49.11c.13-1.52.25-2.91.25-4.3Zm-49.49-5.82c1.39-10.5,7.85-17.59,17.34-17.59,10.13,0,15.95,7.85,16.96,17.59h-34.3Z"/>
        <polygon class="cls-1" points="196.04 81.89 234.64 38.1 197.43 38.1 197.43 25.57 254.13 25.57 254.13 36.07 215.53 79.87 254.13 79.87 254.13 92.4 196.04 92.4 196.04 81.89"/>
      </g>
      <g>
        <path class="cls-1" d="m0,161.51v-.25c0-18.99,14.68-34.93,34.81-34.93,12.53,0,20.25,4.68,26.71,11.52l-9.62,10.25c-4.68-4.94-9.62-8.35-17.21-8.35-11.14,0-19.37,9.62-19.37,21.26v.25c0,11.9,8.23,21.39,20,21.39,7.22,0,12.4-3.29,17.34-8.23l9.24,9.11c-6.58,7.47-14.3,12.53-27.34,12.53-19.87,0-34.55-15.57-34.55-34.55Z"/>
        <path class="cls-1" d="m75.05,170.24v-42.53h15.32v37.97c0,10.5,5.19,16.2,14.3,16.2s15.06-5.95,15.06-16.45v-37.72h15.44v66.83h-15.44v-10.38c-4.43,6.46-10.63,11.77-20.89,11.77-15.19,0-23.8-10-23.8-25.7Z"/>
        <path class="cls-1" d="m203.01,134.3c-4.81-4.94-12.15-7.47-22.15-7.47-10.63,0-17.85,2.28-25.32,5.44l4.18,12.03c6.08-2.53,11.52-4.18,19.11-4.18,10.76,0,16.58,4.94,16.58,14.56v1.65c-5.19-1.65-10.38-2.78-17.97-2.78-16.33,0-27.72,6.96-27.72,21.52v.25c0,13.54,11.27,20.63,23.8,20.63,10.25,0,17.21-4.3,21.77-9.75v8.35h14.93v-39.62c0-8.73-2.28-15.7-7.21-20.63Zm-7.34,36.2c0,8.61-7.72,14.3-17.85,14.3-7.47,0-13.04-3.67-13.04-10.12v-.25c0-7.09,5.7-11.14,15.7-11.14,6.08,0,11.27,1.14,15.19,2.66v4.56Z"/>
        <path class="cls-1" d="m231.1,176.07v-35.19h-8.48v-13.16h8.48v-18.35h15.31v18.35h17.97v13.16h-17.97v32.78c0,5.95,3.04,8.35,8.23,8.35,3.29,0,6.46-.76,9.49-2.28v12.53c-3.92,2.15-7.85,3.41-13.8,3.41-11.27,0-19.24-4.94-19.24-19.62Z"/>
        <path class="cls-1" d="m279.82,127.71h15.44v15.06c4.18-10.12,11.9-16.83,23.67-16.33v16.2h-.89c-13.54,0-22.78,8.73-22.78,26.45v25.44h-15.44v-66.83Z"/>
        <path class="cls-1" d="m361.96,126.32c-20.51,0-35.69,15.82-35.69,34.93v.25c0,18.98,15.06,34.55,35.44,34.55s35.82-15.95,35.82-34.81v-.25c0-19.11-14.94-34.68-35.57-34.68Zm20.25,35.19c0,11.52-7.72,21.14-20.25,21.14-11.77,0-20.38-9.75-20.38-21.39v-.25c0-11.64,7.85-21.26,20.13-21.26s20.51,9.75,20.51,21.52v.25Z"/>
      </g>
      <path class="cls-1" d="m355.96,66.59h-26.08v-15.21h26.08v-25.81h15.49v25.81h26.08v15.21h-26.08v25.81h-15.49v-25.81Z"/>
      <rect class="cls-1" x="191.04" y="20.46" width="15.44" height="397.53" transform="translate(417.99 20.46) rotate(90)"/>
    </g>
  </g>
</svg>