<?xml version="1.0" encoding="UTF-8"?>
<svg id="Capa_2" data-name="Capa 2" xmlns="http://www.w3.org/2000/svg" viewBox="0 0 124.63 225.43">
  <defs>
    <style>
      .cls-1 {
        fill: #1d1d1b;
      }
    </style>
  </defs>
  <g id="Capa_1-2" data-name="Capa 1">
    <g>
      <path class="cls-1" d="m97.01,0v64.83c-8.45-11.41-21.46-21.23-41.09-21.23C27.16,43.6,0,65.97,0,106.14v.46c0,40.17,27.62,62.54,55.92,62.54,19.4,0,32.18-10.04,41.09-22.6v20.09h27.62V0h-27.62Zm.46,106.6c0,23.06-16.44,38.58-34.93,38.58s-34.69-15.29-34.69-38.58v-.46c0-23.74,15.75-38.57,34.69-38.57s34.93,15.29,34.93,38.57v.46Z"/>
      <rect class="cls-1" x="48.91" y="149.71" width="28.15" height="123.3" transform="translate(274.34 148.38) rotate(90)"/>
    </g>
  </g>
</svg>