<?xml version="1.0" encoding="UTF-8"?>
<svg id="Capa_2" data-name="Capa 2" xmlns="http://www.w3.org/2000/svg" viewBox="0 0 123.3 178.1">
  <defs>
    <style>
      .cls-1 {
        fill: #1d1d1b;
      }
    </style>
  </defs>
  <g id="Capa_1-2" data-name="Capa 1">
    <g>
      <path class="cls-1" d="m7.6,61.46v-.44C7.6,27.86,33.24,0,68.39,0c21.89,0,35.37,8.18,46.65,20.12l-16.8,17.91c-8.18-8.62-16.8-14.59-30.07-14.59-19.45,0-33.82,16.8-33.82,37.14v.44c0,20.78,14.37,37.36,34.93,37.36,12.6,0,21.66-5.75,30.29-14.37l16.14,15.92c-11.5,13.04-24.98,21.88-47.75,21.88-34.71,0-60.35-27.19-60.35-60.35Z"/>
      <rect class="cls-1" x="47.58" y="102.38" width="28.15" height="123.3" transform="translate(225.67 102.38) rotate(90)"/>
    </g>
  </g>
</svg>