<?xml version="1.0" standalone="no"?>
<!DOCTYPE svg PUBLIC "-//W3C//DTD SVG 1.1//EN" "http://www.w3.org/Graphics/SVG/1.1/DTD/svg11.dtd">
<svg xmlns="http://www.w3.org/2000/svg" viewBox="0 0 358.54 111.84" width="358.5400085449219" height="111.83999633789062"><defs><style>.cls-1,.cls-2{fill:#fff;}.cls-2{font-size:43.29px;font-family:Nexa-Light;font-weight:300;}</style></defs><g id="Capa_2" data-name="Capa 2"><g id="Capa_1-2" data-name="Capa 1"><path class="cls-1" d="M0,0V99H99V0ZM70.59,68.21l-21.44-20-20,20H11.66L49.08,30.78,87.33,68.21Z"/><polygon class="cls-1" points="154.44 0.36 131.28 24.45 156.46 50.06 156.46 50.57 146.36 50.57 123.85 27.56 123.85 50.57 115.77 50.57 115.77 0.07 123.85 0.07 123.85 21.86 144.41 0.07 154.44 0.07 154.44 0.36"/><polygon class="cls-1" points="184.46 22.36 198.81 0.07 208.55 0.07 208.55 0.43 188.5 29.86 188.5 50.57 180.41 50.57 180.41 29.86 160.94 0.43 160.94 0.07 170.53 0.07 184.46 22.36"/><path class="cls-1" d="M255.34,29.25A10.86,10.86,0,0,0,249,24.53q7-2.89,7-10T251.19,3.68Q246.42.06,238.78.07H215.62v50.5h23.16a31.89,31.89,0,0,0,9.34-1.23,13.54,13.54,0,0,0,6.71-4.58,13.33,13.33,0,0,0,2.71-8.62A13,13,0,0,0,255.34,29.25ZM223.63,7.36h15.15a9.67,9.67,0,0,1,6.71,2.2,6.66,6.66,0,0,1,2.45,5.08,5.43,5.43,0,0,1-2.31,4.69Q243.32,21,238.85,21H223.63Zm22.58,34.08a16.41,16.41,0,0,1-7.43,1.63H223.63V28.2h15.22a13.57,13.57,0,0,1,7.29,2.06,6.48,6.48,0,0,1,3.32,5.81A5.57,5.57,0,0,1,246.21,41.44Z"/><polygon class="cls-1" points="304.58 50.57 267.28 50.57 267.28 0.07 304.36 0.07 304.36 7.93 275.36 7.93 275.36 21.57 303.21 21.57 303.21 29.07 275.36 29.07 275.36 42.63 304.58 42.63 304.58 50.57"/><path class="cls-1" d="M357.68,49.12,342.6,32.32q7-1,10.35-5.38a16.47,16.47,0,0,0,3.36-10.35,16.15,16.15,0,0,0-4.73-11.65Q346.86.06,338.49.07L326.73,0Q318.87,0,315,0V50.57h8.08V33.11h10.68l15.36,17.46h9.45ZM323.05,25.75V7.43h15.44q4.68,0,7.14,2.78a9.55,9.55,0,0,1,2.45,6.53,9,9,0,0,1-2.45,6.42q-2.46,2.6-7.21,2.59Z"/><text class="cls-2" transform="translate(113.93 98.99)">STUDIO</text></g></g></svg>