<?xml version="1.0" standalone="no"?>
<!DOCTYPE svg PUBLIC "-//W3C//DTD SVG 1.1//EN" "http://www.w3.org/Graphics/SVG/1.1/DTD/svg11.dtd">
<svg xmlns="http://www.w3.org/2000/svg" viewBox="0 0 446.82 74.37" width="446.82000732421875" height="74.37000274658203"><defs><style>.cls-1{fill:#fff;}</style></defs><g id="Capa_2" data-name="Capa 2"><g id="Capa_1-2" data-name="Capa 1"><path class="cls-1" d="M0,0V74.37H74.37V0ZM53,51.25l-16.11-15-15,15H8.76L36.88,23.13,65.61,51.25Z"/><polygon class="cls-1" points="146.62 0.53 112.57 35.97 149.59 73.63 149.59 74.38 134.74 74.38 101.64 40.53 101.64 74.38 89.75 74.38 89.75 0.11 101.64 0.11 101.64 32.15 131.88 0.11 146.62 0.11 146.62 0.53"/><polygon class="cls-1" points="190.77 32.89 211.88 0.11 226.21 0.11 226.21 0.64 196.71 43.92 196.71 74.38 184.83 74.38 184.83 43.92 156.18 0.64 156.18 0.11 170.29 0.11 190.77 32.89"/><path class="cls-1" d="M295,43a16,16,0,0,0-9.39-7q10.31-4.24,10.3-14.74t-7-15.92q-7-5.31-18.24-5.3H236.62V74.37h34.06a47.19,47.19,0,0,0,13.74-1.8,19.93,19.93,0,0,0,9.86-6.74q4-4.94,4-12.67A19,19,0,0,0,295,43Zm-46.63-32.2h22.29q6.26,0,9.86,3.24a9.79,9.79,0,0,1,3.61,7.48,8,8,0,0,1-3.4,6.89q-3.39,2.45-10,2.44H248.39ZM281.6,61a24.1,24.1,0,0,1-10.92,2.39H248.39V41.48h22.39a20,20,0,0,1,10.72,3,9.52,9.52,0,0,1,4.88,8.54A8.17,8.17,0,0,1,281.6,61Z"/><polygon class="cls-1" points="367.45 74.38 312.6 74.38 312.6 0.11 367.13 0.11 367.13 11.67 324.48 11.67 324.48 31.72 365.43 31.72 365.43 42.76 324.48 42.76 324.48 62.7 367.45 62.7 367.45 74.38"/><path class="cls-1" d="M445.55,72.25,423.37,47.53q10.29-1.48,15.23-7.9a24.26,24.26,0,0,0,4.93-15.23,23.69,23.69,0,0,0-6.95-17.13Q429.64.1,417.33.11,411.6.11,400,.05T382.74,0V74.37h11.88V48.7h15.7l22.6,25.67h13.9ZM394.62,37.88V10.93h22.71q6.89,0,10.5,4.08a14.09,14.09,0,0,1,3.61,9.6,13.27,13.27,0,0,1-3.61,9.45q-3.61,3.81-10.61,3.82Z"/></g></g></svg>