<svg xmlns="http://www.w3.org/2000/svg" xmlns:xlink="http://www.w3.org/1999/xlink" width="262" zoomAndPan="magnify" viewBox="0 0 196.5 871.499996" height="1162" preserveAspectRatio="xMidYMid meet" version="1.0"><defs><clipPath id="7092328ddf"><path d="M 0 322 L 181.449219 322 L 181.449219 529.527344 L 0 529.527344 Z M 0 322 " clip-rule="nonzero"/></clipPath><clipPath id="c04791a1e0"><path d="M 0 425.84375 L 181.449219 322.15625 L 181.449219 529.527344 Z M 0 425.84375 " clip-rule="nonzero"/></clipPath><clipPath id="6b010d30d9"><path d="M 21.398438 1.207031 L 28.660156 1.207031 L 28.660156 858.789062 L 21.398438 858.789062 Z M 21.398438 1.207031 " clip-rule="nonzero"/></clipPath><clipPath id="acdba906f9"><path d="M 28.660156 1.210938 L 195.460938 1.210938 L 195.460938 869.886719 L 28.660156 869.886719 Z M 28.660156 1.210938 " clip-rule="nonzero"/></clipPath><clipPath id="b69a5b74f0"><path d="M 9.359375 322 L 190.808594 322 L 190.808594 529.527344 L 9.359375 529.527344 Z M 9.359375 322 " clip-rule="nonzero"/></clipPath><clipPath id="7f0c17d777"><path d="M 9.359375 425.84375 L 190.808594 322.15625 L 190.808594 529.527344 Z M 9.359375 425.84375 " clip-rule="nonzero"/></clipPath></defs><g clip-path="url(#7092328ddf)"><g clip-path="url(#c04791a1e0)"><path fill="#000000" d="M 0 529.527344 L 0 321.851562 L 181.449219 321.851562 L 181.449219 529.527344 Z M 0 529.527344 " fill-opacity="1" fill-rule="nonzero"/></g></g><g clip-path="url(#6b010d30d9)"><path fill="#000000" d="M 21.398438 1.207031 L 28.660156 1.207031 L 28.660156 858.78125 L 21.398438 858.78125 Z M 21.398438 1.207031 " fill-opacity="1" fill-rule="nonzero"/></g><g clip-path="url(#acdba906f9)"><path fill="#efefef" d="M 28.660156 1.210938 L 195.460938 1.210938 L 195.460938 869.757812 L 28.660156 869.757812 Z M 28.660156 1.210938 " fill-opacity="1" fill-rule="nonzero"/></g><g clip-path="url(#b69a5b74f0)"><g clip-path="url(#7f0c17d777)"><path fill="#efefef" d="M 9.359375 529.527344 L 9.359375 321.851562 L 190.808594 321.851562 L 190.808594 529.527344 Z M 9.359375 529.527344 " fill-opacity="1" fill-rule="nonzero"/></g></g></svg>